Coordinates
nRows=11
nColumns=24

# SIMM Motion File Header:
name Coordinates
datacolumns 24
datarows 11
otherdata 1
range 0.39433000000000001000 0.40433000000000002000
endheader
time	pelvis_tx	pelvis_ty	pelvis_tz	pelvis_tilt	pelvis_list	pelvis_rotation	hip_flexion_r	hip_adduction_r	hip_rotation_r	knee_angle_r	ankle_angle_r	subtalar_angle_r	mtp_angle_r	hip_flexion_l	hip_adduction_l	hip_rotation_l	knee_angle_l	ankle_angle_l	subtalar_angle_l	mtp_angle_l	lumbar_extension	lumbar_bending	lumbar_rotation
      0.39433000000000001000	      1.56525187713392810000	      0.73464935696753431000	     -0.16925245997596175000	     -1.97091061255705150000	     -1.23507752655207170000	     -4.18409300621452920000	    -13.54952714151829300000	      4.98914569234238850000	      6.55696914149850850000	      0.19630405987783073000	      8.57671920190922780000	     -0.00000000000008278914	     -0.00000000000008535937	     31.78619660809009800000	     -4.24769365287390690000	    -16.00217598782875300000	    -13.03474353269598600000	     -3.91088379121576320000	     -0.00000000000000103774	     -0.00000000000008528098	     -6.58823338098015650000	     -0.08335307502375349800	     11.13448304112815500000
      0.39533000000000001000	      1.56647035488505580000	      0.73428314487460766000	     -0.16922699404650360000	     -1.96425601410303980000	     -1.24957374695958130000	     -4.23666400828952130000	    -13.69596273208982500000	      4.98547953389106360000	      6.57378633127716940000	      0.24752923323428092000	      8.62267617815732560000	     -0.00000000000008305583	     -0.00000000000008602254	     31.78315584942389500000	     -4.27811599450908720000	    -16.10613049136293600000	    -12.66618442471321700000	     -3.91441370501266480000	     -0.00000000000000098414	     -0.00000000000008630475	     -6.59605595635597110000	     -0.07682318289413631000	     11.17123045716165200000
      0.39633000000000002000	      1.56768883263618350000	      0.73391693278168102000	     -0.16920152811704547000	     -1.95760141564902910000	     -1.26406996736709170000	     -4.28923501036451160000	    -13.84239832266135300000	      4.98181337543973960000	      6.59060352105582850000	      0.29875440659072738000	      8.66863315440542340000	     -0.00000000000008332252	     -0.00000000000008668570	     31.78011509075769300000	     -4.30853833614426750000	    -16.21008499489711600000	    -12.29762531673045500000	     -3.91794361880956690000	     -0.00000000000000093054	     -0.00000000000008732851	     -6.60387853173178560000	     -0.07029329076451927600	     11.20797787319515100000
      0.39733000000000002000	      1.56890844924966300000	      0.73354730050222650000	     -0.16917576543309379000	     -1.95161892125874960000	     -1.27929344495810390000	     -4.34052321317895280000	    -13.98554145112393200000	      4.97900568688673490000	      6.60595134859049700000	      0.34485362216258064000	      8.71655173422267100000	     -0.00000000000008358811	     -0.00000000000008736782	     31.77780952514966700000	     -4.33862525998288810000	    -16.30497694342603400000	    -11.93710881156494000000	     -3.92175326583074210000	     -0.00000000000000085204	     -0.00000000000008840496	     -6.61148516685079280000	     -0.06395433436200247100	     11.24474642380166900000
      0.39833000000000002000	      1.57012806586314220000	      0.73317766822277208000	     -0.16915000274914210000	     -1.94563642686847030000	     -1.29451692254911620000	     -4.39181141599339410000	    -14.12868457958651000000	      4.97619799833373030000	      6.62129917612516560000	      0.39095283773443390000	      8.76447031403991870000	     -0.00000000000008385369	     -0.00000000000008804995	     31.77550395954164100000	     -4.36871218382150860000	    -16.39986889195494900000	    -11.57659230639942600000	     -3.92556291285191740000	     -0.00000000000000077355	     -0.00000000000008948141	     -6.61909180196980000000	     -0.05761537795948566700	     11.28151497440818600000
      0.39933000000000002000	      1.57134877286834640000	      0.73280588976640026000	     -0.16912422663433238000	     -1.93990504066093350000	     -1.31036522248600250000	     -4.44188495894596350000	    -14.26945796626500900000	      4.97413249041948550000	      6.63535362721270780000	      0.43290637636706653000	      8.81359692822814540000	     -0.00000000000008413836	     -0.00000000000008866732	     31.77351403533967300000	     -4.39849001409433970000	    -16.48704610377793500000	    -11.22320808991372200000	     -3.92982092805411960000	     -0.00000000000000072277	     -0.00000000000009051287	     -6.62689359776080700000	     -0.05143140065231693200	     11.31821966495054500000
      0.40033000000000002000	      1.57256963564379700000	      0.73243380471332586000	     -0.16909844860082865000	     -1.93420952705093120000	     -1.32630278275801380000	     -4.49178497906112280000	    -14.40989281840292300000	      4.97217300831077760000	      6.64922331023637360000	      0.47426767543695247000	      8.86289611875508140000	     -0.00000000000008442576	     -0.00000000000008927544	     31.77156920276714300000	     -4.42822368814348710000	    -16.57312121035721100000	    -10.87084277181085100000	     -3.93414299585361200000	     -0.00000000000000067595	     -0.00000000000009153791	     -6.63472327364781390000	     -0.04526956321591223800	     11.35491523262659500000
      0.40133000000000002000	      1.57379115466574460000	      0.73206039638020426000	     -0.16907294504042777000	     -1.92887740239775880000	     -1.34278662070636750000	     -4.54072839155503870000	    -14.54860180256275900000	      4.97091829014719360000	      6.66220862939566860000	      0.51296999900173312000	      8.91237762198521640000	     -0.00000000000008474006	     -0.00000000000008977242	     31.77025865969398700000	     -4.45787884135349890000	    -16.65356274734026300000	    -10.52352989969775300000	     -3.93839766442618980000	     -0.00000000000000063413	     -0.00000000000009256240	     -6.64245770378788160000	     -0.03896678351465382400	     11.39139995161166800000
      0.40233000000000002000	      1.57501332993418930000	      0.73168566476703545000	     -0.16904771595312978000	     -1.92390866670141620000	     -1.35981673633106360000	     -4.58871519642771200000	    -14.68558491874451600000	      4.97036833592873340000	      6.67430958469059110000	      0.54901334706140947000	      8.96204143791855050000	     -0.00000000000008508126	     -0.00000000000009015825	     31.76958240612020700000	     -4.48745547372437410000	    -16.72837071472708800000	    -10.18126947357442100000	     -3.94258493377185280000	     -0.00000000000000059731	     -0.00000000000009358634	     -6.65009688818101010000	     -0.03252306154854176000	     11.42767382190576200000
      0.40333000000000002000	      1.57623550520263380000	      0.73131093315386675000	     -0.16902248686583179000	     -1.91893993100507390000	     -1.37684685195576020000	     -4.63670200130038430000	    -14.82256803492627200000	      4.96981838171027320000	      6.68641053998551270000	      0.58505669512108371000	      9.01170525385188270000	     -0.00000000000008542245	     -0.00000000000009054408	     31.76890615254642800000	     -4.51703210609525030000	    -16.80317868211391300000	     -9.83900904745109450000	     -3.94677220311751540000	     -0.00000000000000056050	     -0.00000000000009461029	     -6.65773607257413860000	     -0.02607933958242950700	     11.46394769219985800000
      0.40433000000000002000	      1.57745909846207640000	      0.73093380128432295000	     -0.16899842463815129000	     -1.91491688174347230000	     -1.39508922245016720000	     -4.68232932198818740000	    -14.95573990600628500000	      4.97092534986565670000	      6.69645050648984610000	      0.61551961285928602000	      9.06000776427681490000	     -0.00000000000008580594	     -0.00000000000009076947	     31.77013983909697400000	     -4.54646225702676960000	    -16.86478973091720200000	     -9.50841374502403980000	     -3.94985921863517970000	     -0.00000000000000048016	     -0.00000000000009568237	     -6.66496403778371250000	     -0.01914470579971389700	     11.49942858190742900000
